<mxfile host="app.diagrams.net" agent="Mozilla/5.0 (X11; Ubuntu; Linux x86_64; rv:136.0) Gecko/20100101 Firefox/136.0" version="26.1.1">
  <diagram name="Page-1" id="T2HV7W2bEr10PdScYj_j">
    <mxGraphModel dx="947" dy="499" grid="1" gridSize="10" guides="1" tooltips="1" connect="1" arrows="1" fold="1" page="1" pageScale="1" pageWidth="850" pageHeight="1100" math="0" shadow="0">
      <root>
        <mxCell id="0" />
        <mxCell id="1" parent="0" />
        <mxCell id="MTA_4rFRmgYYKRMojckk-1" value="Actor" style="shape=umlActor;verticalLabelPosition=bottom;verticalAlign=top;html=1;" vertex="1" parent="1">
          <mxGeometry x="10" y="300" width="30" height="60" as="geometry" />
        </mxCell>
        <mxCell id="MTA_4rFRmgYYKRMojckk-3" value="" style="html=1;whiteSpace=wrap;fillColor=none;" vertex="1" parent="1">
          <mxGeometry x="150" y="140" width="470" height="410" as="geometry" />
        </mxCell>
        <mxCell id="MTA_4rFRmgYYKRMojckk-4" value="Social Sharing and Experience Documentation" style="text;align=center;fontStyle=1;verticalAlign=middle;spacingLeft=3;spacingRight=3;strokeColor=none;rotatable=0;points=[[0,0.5],[1,0.5]];portConstraint=eastwest;html=1;" vertex="1" parent="1">
          <mxGeometry x="250" y="150" width="80" height="26" as="geometry" />
        </mxCell>
        <mxCell id="MTA_4rFRmgYYKRMojckk-6" value="Share Exibit" style="ellipse;whiteSpace=wrap;html=1;" vertex="1" parent="1">
          <mxGeometry x="180" y="230" width="80" height="47.5" as="geometry" />
        </mxCell>
        <mxCell id="MTA_4rFRmgYYKRMojckk-7" value="Create Visit Summary" style="ellipse;whiteSpace=wrap;html=1;" vertex="1" parent="1">
          <mxGeometry x="180" y="290" width="80" height="47.5" as="geometry" />
        </mxCell>
        <mxCell id="MTA_4rFRmgYYKRMojckk-8" value="Save to Collection" style="ellipse;whiteSpace=wrap;html=1;" vertex="1" parent="1">
          <mxGeometry x="180" y="350" width="80" height="47.5" as="geometry" />
        </mxCell>
        <mxCell id="MTA_4rFRmgYYKRMojckk-9" value="Generate Certificate" style="ellipse;whiteSpace=wrap;html=1;" vertex="1" parent="1">
          <mxGeometry x="180" y="410" width="80" height="47.5" as="geometry" />
        </mxCell>
        <mxCell id="MTA_4rFRmgYYKRMojckk-10" value="Review Visit History" style="ellipse;whiteSpace=wrap;html=1;" vertex="1" parent="1">
          <mxGeometry x="180" y="470" width="80" height="47.5" as="geometry" />
        </mxCell>
        <mxCell id="MTA_4rFRmgYYKRMojckk-11" value="Generate Statistics" style="ellipse;whiteSpace=wrap;html=1;" vertex="1" parent="1">
          <mxGeometry x="380" y="470" width="80" height="47.5" as="geometry" />
        </mxCell>
        <mxCell id="MTA_4rFRmgYYKRMojckk-12" value="Update User&#39;s Database" style="ellipse;whiteSpace=wrap;html=1;" vertex="1" parent="1">
          <mxGeometry x="370" y="360" width="100" height="60" as="geometry" />
        </mxCell>
        <mxCell id="MTA_4rFRmgYYKRMojckk-13" value="Provide Social Media Intergration" style="ellipse;whiteSpace=wrap;html=1;" vertex="1" parent="1">
          <mxGeometry x="365" y="260" width="110" height="70" as="geometry" />
        </mxCell>
        <mxCell id="MTA_4rFRmgYYKRMojckk-15" value="" style="endArrow=open;endFill=1;endSize=12;html=1;rounded=0;" edge="1" parent="1" source="MTA_4rFRmgYYKRMojckk-1" target="MTA_4rFRmgYYKRMojckk-6">
          <mxGeometry width="160" relative="1" as="geometry">
            <mxPoint x="40" y="330" as="sourcePoint" />
            <mxPoint x="210" y="342.21" as="targetPoint" />
            <Array as="points" />
          </mxGeometry>
        </mxCell>
        <mxCell id="MTA_4rFRmgYYKRMojckk-16" value="" style="endArrow=open;endFill=1;endSize=12;html=1;rounded=0;" edge="1" parent="1" source="MTA_4rFRmgYYKRMojckk-1" target="MTA_4rFRmgYYKRMojckk-7">
          <mxGeometry width="160" relative="1" as="geometry">
            <mxPoint x="80" y="344" as="sourcePoint" />
            <mxPoint x="200" y="280" as="targetPoint" />
            <Array as="points" />
          </mxGeometry>
        </mxCell>
        <mxCell id="MTA_4rFRmgYYKRMojckk-18" value="" style="endArrow=open;endFill=1;endSize=12;html=1;rounded=0;" edge="1" parent="1" source="MTA_4rFRmgYYKRMojckk-1" target="MTA_4rFRmgYYKRMojckk-8">
          <mxGeometry width="160" relative="1" as="geometry">
            <mxPoint x="50" y="339" as="sourcePoint" />
            <mxPoint x="190" y="327" as="targetPoint" />
            <Array as="points" />
          </mxGeometry>
        </mxCell>
        <mxCell id="MTA_4rFRmgYYKRMojckk-19" value="" style="endArrow=open;endFill=1;endSize=12;html=1;rounded=0;" edge="1" parent="1" source="MTA_4rFRmgYYKRMojckk-1" target="MTA_4rFRmgYYKRMojckk-9">
          <mxGeometry width="160" relative="1" as="geometry">
            <mxPoint x="60" y="349" as="sourcePoint" />
            <mxPoint x="200" y="337" as="targetPoint" />
            <Array as="points" />
          </mxGeometry>
        </mxCell>
        <mxCell id="MTA_4rFRmgYYKRMojckk-20" value="" style="endArrow=open;endFill=1;endSize=12;html=1;rounded=0;" edge="1" parent="1" source="MTA_4rFRmgYYKRMojckk-1" target="MTA_4rFRmgYYKRMojckk-10">
          <mxGeometry width="160" relative="1" as="geometry">
            <mxPoint x="50" y="348" as="sourcePoint" />
            <mxPoint x="200" y="428" as="targetPoint" />
            <Array as="points" />
          </mxGeometry>
        </mxCell>
        <mxCell id="MTA_4rFRmgYYKRMojckk-21" value="&amp;lt;&amp;lt;include&amp;gt;&amp;gt;" style="endArrow=open;endSize=12;dashed=1;html=1;rounded=0;" edge="1" parent="1" source="MTA_4rFRmgYYKRMojckk-6" target="MTA_4rFRmgYYKRMojckk-13">
          <mxGeometry width="160" relative="1" as="geometry">
            <mxPoint x="280" y="329.71" as="sourcePoint" />
            <mxPoint x="380" y="330" as="targetPoint" />
          </mxGeometry>
        </mxCell>
        <mxCell id="MTA_4rFRmgYYKRMojckk-22" value="&amp;lt;&amp;lt;include&amp;gt;&amp;gt;" style="endArrow=open;endSize=12;dashed=1;html=1;rounded=0;" edge="1" parent="1" source="MTA_4rFRmgYYKRMojckk-7" target="MTA_4rFRmgYYKRMojckk-13">
          <mxGeometry width="160" relative="1" as="geometry">
            <mxPoint x="270" y="267" as="sourcePoint" />
            <mxPoint x="411" y="280" as="targetPoint" />
          </mxGeometry>
        </mxCell>
        <mxCell id="MTA_4rFRmgYYKRMojckk-25" value="&amp;lt;&amp;lt;include&amp;gt;&amp;gt;" style="endArrow=open;endSize=12;dashed=1;html=1;rounded=0;exitX=1;exitY=0.5;exitDx=0;exitDy=0;" edge="1" parent="1" source="MTA_4rFRmgYYKRMojckk-8" target="MTA_4rFRmgYYKRMojckk-12">
          <mxGeometry width="160" relative="1" as="geometry">
            <mxPoint x="267" y="391.5" as="sourcePoint" />
            <mxPoint x="410" y="368.5" as="targetPoint" />
          </mxGeometry>
        </mxCell>
        <mxCell id="MTA_4rFRmgYYKRMojckk-26" value="&amp;lt;&amp;lt;include&amp;gt;&amp;gt;" style="endArrow=open;endSize=12;dashed=1;html=1;rounded=0;exitX=1;exitY=0.5;exitDx=0;exitDy=0;" edge="1" parent="1" source="MTA_4rFRmgYYKRMojckk-9" target="MTA_4rFRmgYYKRMojckk-12">
          <mxGeometry width="160" relative="1" as="geometry">
            <mxPoint x="260" y="420" as="sourcePoint" />
            <mxPoint x="410" y="425" as="targetPoint" />
          </mxGeometry>
        </mxCell>
        <mxCell id="MTA_4rFRmgYYKRMojckk-27" value="&amp;lt;&amp;lt;include&amp;gt;&amp;gt;" style="endArrow=open;endSize=12;dashed=1;html=1;rounded=0;exitX=1;exitY=0.5;exitDx=0;exitDy=0;entryX=0;entryY=0.5;entryDx=0;entryDy=0;" edge="1" parent="1" source="MTA_4rFRmgYYKRMojckk-9" target="MTA_4rFRmgYYKRMojckk-11">
          <mxGeometry width="160" relative="1" as="geometry">
            <mxPoint x="260" y="452.5" as="sourcePoint" />
            <mxPoint x="410" y="457.5" as="targetPoint" />
          </mxGeometry>
        </mxCell>
        <mxCell id="MTA_4rFRmgYYKRMojckk-28" value="&amp;lt;&amp;lt;include&amp;gt;&amp;gt;" style="endArrow=open;endSize=12;dashed=1;html=1;rounded=0;exitX=1;exitY=0.5;exitDx=0;exitDy=0;entryX=0.121;entryY=0.775;entryDx=0;entryDy=0;entryPerimeter=0;" edge="1" parent="1" source="MTA_4rFRmgYYKRMojckk-10" target="MTA_4rFRmgYYKRMojckk-11">
          <mxGeometry width="160" relative="1" as="geometry">
            <mxPoint x="270" y="478.75" as="sourcePoint" />
            <mxPoint x="410" y="470" as="targetPoint" />
          </mxGeometry>
        </mxCell>
        <mxCell id="MTA_4rFRmgYYKRMojckk-29" value="Check Connection" style="ellipse;whiteSpace=wrap;html=1;" vertex="1" parent="1">
          <mxGeometry x="365" y="176" width="80" height="47.5" as="geometry" />
        </mxCell>
        <mxCell id="MTA_4rFRmgYYKRMojckk-32" value="&amp;lt;&amp;lt;extend&amp;gt;&amp;gt;" style="endArrow=open;endSize=12;dashed=1;html=1;rounded=0;entryX=0.997;entryY=0.387;entryDx=0;entryDy=0;entryPerimeter=0;exitX=0.096;exitY=0.731;exitDx=0;exitDy=0;exitPerimeter=0;" edge="1" parent="1" source="MTA_4rFRmgYYKRMojckk-29" target="MTA_4rFRmgYYKRMojckk-6">
          <mxGeometry width="160" relative="1" as="geometry">
            <mxPoint x="250" y="210" as="sourcePoint" />
            <mxPoint x="356" y="200" as="targetPoint" />
          </mxGeometry>
        </mxCell>
        <mxCell id="MTA_4rFRmgYYKRMojckk-33" value="System" style="shape=umlActor;verticalLabelPosition=bottom;verticalAlign=top;html=1;" vertex="1" parent="1">
          <mxGeometry x="700" y="300" width="30" height="60" as="geometry" />
        </mxCell>
        <mxCell id="MTA_4rFRmgYYKRMojckk-36" value="" style="endArrow=open;endFill=1;endSize=12;html=1;rounded=0;entryX=1;entryY=0.5;entryDx=0;entryDy=0;" edge="1" parent="1" source="MTA_4rFRmgYYKRMojckk-33" target="MTA_4rFRmgYYKRMojckk-29">
          <mxGeometry width="160" relative="1" as="geometry">
            <mxPoint x="650" y="469.43" as="sourcePoint" />
            <mxPoint x="810" y="469.43" as="targetPoint" />
          </mxGeometry>
        </mxCell>
        <mxCell id="MTA_4rFRmgYYKRMojckk-37" value="" style="endArrow=open;endFill=1;endSize=12;html=1;rounded=0;entryX=1;entryY=0.5;entryDx=0;entryDy=0;" edge="1" parent="1" source="MTA_4rFRmgYYKRMojckk-33" target="MTA_4rFRmgYYKRMojckk-13">
          <mxGeometry width="160" relative="1" as="geometry">
            <mxPoint x="710" y="333" as="sourcePoint" />
            <mxPoint x="455" y="210" as="targetPoint" />
          </mxGeometry>
        </mxCell>
        <mxCell id="MTA_4rFRmgYYKRMojckk-38" value="" style="endArrow=open;endFill=1;endSize=12;html=1;rounded=0;entryX=1;entryY=0.5;entryDx=0;entryDy=0;" edge="1" parent="1" source="MTA_4rFRmgYYKRMojckk-33" target="MTA_4rFRmgYYKRMojckk-12">
          <mxGeometry width="160" relative="1" as="geometry">
            <mxPoint x="720" y="343" as="sourcePoint" />
            <mxPoint x="465" y="220" as="targetPoint" />
          </mxGeometry>
        </mxCell>
        <mxCell id="MTA_4rFRmgYYKRMojckk-39" value="" style="endArrow=open;endFill=1;endSize=12;html=1;rounded=0;entryX=1;entryY=0.5;entryDx=0;entryDy=0;" edge="1" parent="1" source="MTA_4rFRmgYYKRMojckk-33" target="MTA_4rFRmgYYKRMojckk-11">
          <mxGeometry width="160" relative="1" as="geometry">
            <mxPoint x="730" y="353" as="sourcePoint" />
            <mxPoint x="475" y="230" as="targetPoint" />
          </mxGeometry>
        </mxCell>
      </root>
    </mxGraphModel>
  </diagram>
</mxfile>
